<svg width="44" height="45" xmlns="http://www.w3.org/2000/svg" xmlns:xlink="http://www.w3.org/1999/xlink" overflow="hidden"><defs><clipPath id="clip0"><rect x="588" y="108" width="44" height="45"/></clipPath><clipPath id="clip1"><rect x="588" y="109" width="44" height="44"/></clipPath><clipPath id="clip2"><rect x="588" y="109" width="44" height="44"/></clipPath><clipPath id="clip3"><rect x="588" y="109" width="44" height="44"/></clipPath></defs><g clip-path="url(#clip0)" transform="translate(-588 -108)"><g clip-path="url(#clip1)"><g clip-path="url(#clip2)"><g clip-path="url(#clip3)"><path d="M630.034 132.381C630.423 133.404 630.623 134.489 630.625 135.583 630.625 142.774 622.083 148.373 611.453 148.843L612.806 150.194C613.305 150.693 613.346 151.488 612.9 152.035L612.806 152.139C612.307 152.638 611.512 152.679 610.965 152.234L610.861 152.139 607.194 148.473C606.695 147.974 606.654 147.179 607.1 146.632L607.194 146.527 610.861 142.861C611.394 142.32 612.264 142.313 612.805 142.846 613.313 143.347 613.354 144.152 612.9 144.701L612.806 144.806 611.525 146.087C620.763 145.619 627.875 140.939 627.875 135.583 627.875 134.827 627.736 134.082 627.461 133.351 627.202 132.637 627.57 131.849 628.284 131.59 628.986 131.335 629.762 131.687 630.034 132.381ZM591.763 131.537C592.471 131.809 592.826 132.604 592.554 133.313 592.272 134.037 592.127 134.807 592.125 135.583 592.125 139.52 596.013 143.243 602.174 145.044 602.903 145.257 603.321 146.021 603.108 146.75 602.894 147.479 602.131 147.897 601.402 147.684 594.197 145.575 589.375 140.961 589.375 135.583 589.375 134.474 589.582 133.382 589.986 132.329 590.258 131.62 591.053 131.266 591.762 131.537ZM609.627 109.614C610.04 109.398 610.535 109.406 610.941 109.636L623.894 116.969C624.005 117.032 624.107 117.11 624.196 117.201L624.228 117.234C624.269 117.279 624.308 117.326 624.342 117.377L624.359 117.4 624.39 117.449 624.413 117.488 624.424 117.508 624.459 117.577 624.413 117.488C624.461 117.574 624.501 117.665 624.53 117.76L624.539 117.79C624.548 117.822 624.556 117.854 624.562 117.885L624.568 117.914C624.584 117.997 624.592 118.081 624.591 118.166L624.585 118.039C624.589 118.075 624.591 118.111 624.591 118.146L624.591 132.833C624.591 133.329 624.324 133.786 623.893 134.03L610.941 141.363C610.535 141.593 610.04 141.601 609.627 141.385L595.611 134.052C595.158 133.814 594.875 133.345 594.875 132.833L594.875 118.167C594.875 117.655 595.159 117.186 595.613 116.948ZM597.624 120.311 597.625 132 608.89 137.895 608.89 126.324 597.624 120.311ZM621.841 120.525 611.64 126.301 611.64 137.807 621.841 132.031 621.841 120.525ZM610.239 112.398 599.332 118.105 610.246 123.931 620.425 118.167 610.239 112.398Z" fill="#333333" fill-rule="nonzero" fill-opacity="1"/></g></g></g></g></svg>