<svg width="55" height="53" xmlns="http://www.w3.org/2000/svg" xmlns:xlink="http://www.w3.org/1999/xlink" overflow="hidden"><defs><clipPath id="clip0"><rect x="761" y="104" width="55" height="53"/></clipPath><clipPath id="clip1"><rect x="762" y="105" width="53" height="52"/></clipPath><clipPath id="clip2"><rect x="762" y="105" width="53" height="52"/></clipPath><clipPath id="clip3"><rect x="762" y="105" width="53" height="52"/></clipPath></defs><g clip-path="url(#clip0)" transform="translate(-761 -104)"><g clip-path="url(#clip1)"><g clip-path="url(#clip2)"><g clip-path="url(#clip3)"><path d="M39.7436 9.854C35.9077 8.48468 31.3265 7.8 26 7.8 20.6735 7.8 16.0923 8.48468 12.2564 9.854 7.55214 11.5353 5.2 13.884 5.2 16.9 5.2 19.916 7.55214 22.2647 12.2564 23.946 16.0923 25.3153 20.6735 26 26 26 31.3265 26 35.9077 25.3153 39.7436 23.946 44.4479 22.2647 46.8 19.916 46.8 16.9 46.8 13.884 44.4479 11.5353 39.7436 9.854ZM14.0036 14.7524C17.2779 13.5841 21.2767 13 26 13 30.7233 13 34.7213 13.5841 37.9938 14.7524 39.3787 15.2464 40.4118 15.7811 41.093 16.3566 41.431 16.6426 41.6 16.8237 41.6 16.9 41.6 16.9763 41.431 17.1583 41.093 17.446 40.4118 18.018 39.3787 18.5519 37.9938 19.0476 34.723 20.2159 30.725 20.8 26 20.8 21.275 20.8 17.277 20.2159 14.0062 19.0476 12.6213 18.5536 11.5882 18.0189 10.907 17.4434 10.569 17.1574 10.4 16.9763 10.4 16.9 10.4 16.8237 10.569 16.6417 10.907 16.354 11.5882 15.782 12.6213 15.2481 14.0062 14.7524ZM10.9096 25.2434C10.5699 24.9574 10.4 24.7763 10.4 24.7L5.2 24.7C5.2 27.716 7.55214 30.0647 12.2564 31.746 16.0923 33.1153 20.6735 33.8 26 33.8 31.3265 33.8 35.9077 33.1153 39.7436 31.746 44.4479 30.0647 46.8 27.716 46.8 24.7L41.6 24.7C41.6 24.7763 41.431 24.9574 41.093 25.2434 40.4118 25.8189 39.3787 26.3536 37.9938 26.8476 34.723 28.0159 30.725 28.6 26 28.6 21.275 28.6 17.277 28.0159 14.0062 26.8476 12.6213 26.3536 11.5882 25.8189 10.907 25.2434ZM41.6 33.8 41.574 33.8182 46.085 36.4026C46.5617 35.5689 46.8 34.7013 46.8 33.8L41.6 33.8ZM29.8558 42.7622C30.4642 42.7171 31.0778 42.6608 31.6966 42.5932L31.1272 37.4244C30.5725 37.485 30.023 37.5353 29.4788 37.5752 28.3348 37.6584 27.1752 37.7 26 37.7 21.275 37.7 17.277 37.1159 14.0062 35.9476 12.6213 35.4536 11.5882 34.9189 10.907 34.3434 10.569 34.0574 10.4 33.8763 10.4 33.8L5.2 33.8C5.2 36.816 7.55214 39.1647 12.2564 40.846 16.0923 42.2153 20.6735 42.9 26 42.9 27.3 42.9 28.5853 42.854 29.8558 42.7622Z" fill="#000000" fill-rule="nonzero" fill-opacity="1" transform="matrix(1.01923 0 0 1 762 105)"/><path d="M32.5 39C32.5 41.8719 34.8281 44.2 37.7 44.2 40.5719 44.2 42.9 41.8719 42.9 39 42.9 36.1281 40.5719 33.8 37.7 33.8 34.8281 33.8 32.5 36.1281 32.5 39Z" fill="#000000" fill-rule="nonzero" fill-opacity="1" transform="matrix(1.01923 0 0 1 762 105)"/></g></g></g></g></svg>