<svg width="40" height="41" xmlns="http://www.w3.org/2000/svg" xmlns:xlink="http://www.w3.org/1999/xlink" overflow="hidden"><defs><clipPath id="clip0"><rect x="44" y="109" width="40" height="41"/></clipPath><clipPath id="clip1"><rect x="44" y="110" width="40" height="40"/></clipPath><clipPath id="clip2"><rect x="44" y="110" width="40" height="40"/></clipPath><clipPath id="clip3"><rect x="44" y="110" width="40" height="40"/></clipPath></defs><g clip-path="url(#clip0)" transform="translate(-44 -109)"><g clip-path="url(#clip1)"><g clip-path="url(#clip2)"><g clip-path="url(#clip3)"><path d="M80.7528 143.836C80.7348 143.691 80.6808 143.553 80.5956 143.435 80.5956 143.33 77.278 139.104 72.9476 133.394 73.0662 133.38 73.1798 133.338 73.2794 133.272L73.3841 133.185 73.4889 133.063C73.6227 132.797 73.7393 132.523 73.8381 132.242 74.0826 131.625 74.2921 131.043 74.4667 130.496 75.0632 128.988 75.25 127.349 75.008 125.746 74.7101 124.615 74.1941 123.554 73.4889 122.621 74.9906 120.508 76.5272 118.221 77.9415 115.985L78.0812 115.985C79.3243 116.016 80.4484 115.25 80.875 114.082 81.0989 113.406 81.0358 112.668 80.7004 112.039 80.3382 111.351 79.7054 110.845 78.9543 110.642 77.4828 110.191 75.9125 110.953 75.3573 112.388 75.1339 113.03 75.1779 113.735 75.4795 114.344L70.4681 120.124C68.865 119.384 67.0839 119.118 65.3345 119.355 64.9462 119.412 64.5655 119.511 64.1995 119.652 64.209 119.6 64.209 119.547 64.1995 119.495 59.0659 112.86 57.7563 111.236 56.8309 110.293 56.5202 109.937 55.9797 109.9 55.6237 110.211 55.6064 110.226 55.5897 110.242 55.5737 110.258 55.4418 110.427 55.3794 110.639 55.399 110.852 55.3692 111.066 55.4328 111.282 55.5737 111.446 58.079 114.293 60.4392 117.266 62.6455 120.351 62.1216 120.665 61.5629 120.997 60.8993 121.433 60.2358 121.87 59.677 122.411 59.4151 122.638L59.0659 123.022C58.9576 123.096 58.8727 123.199 58.8214 123.319 58.7686 123.405 58.733 123.5 58.7167 123.599 58.6659 123.883 58.7648 124.173 58.9786 124.367 59.156 124.642 59.2748 124.951 59.3278 125.275 59.42 125.894 59.2561 126.525 58.8738 127.021 58.4479 127.575 57.8204 127.939 57.1277 128.034 56.4697 128.154 55.7906 128.023 55.2244 127.667L54.3164 127.667C51.9309 128.556 49.9054 130.207 48.5542 132.364 47.1696 134.612 46.6426 137.284 47.07 139.89 47.5774 143.344 49.5838 146.399 52.5529 148.236 54.4462 149.374 56.6125 149.978 58.8214 149.983 59.8019 149.982 60.7794 149.876 61.7375 149.668 64.3714 149.126 66.7423 147.704 68.4601 145.635 70.0799 143.669 70.9576 141.197 70.9396 138.65L70.9396 138.545 70.9396 138.458C70.9486 138.418 70.9486 138.376 70.9396 138.336 70.9076 138.257 70.8601 138.186 70.7999 138.126L70.6776 138.004C69.4546 137.287 69.0441 135.715 69.7609 134.492 69.7638 134.487 69.7667 134.482 69.7697 134.477 70.0341 134.028 70.4391 133.678 70.9221 133.482 74.4143 138.109 77.2955 141.898 78.5701 143.574L79.1289 144.308 79.4606 146.56C79.5286 146.971 79.8824 147.273 80.2988 147.276 80.3442 147.291 80.3931 147.291 80.4385 147.276 80.8861 147.205 81.1912 146.784 81.12 146.337 81.1198 146.335 81.1197 146.334 81.1195 146.333ZM68.3378 133.586C67.3102 135.343 67.6686 137.581 69.1934 138.93 69.0157 143.439 65.7384 147.224 61.3009 148.044 58.6025 148.685 55.7612 148.273 53.3561 146.892 50.7815 145.325 49.0353 142.696 48.5891 139.715 47.8912 135.253 50.4319 130.916 54.6657 129.343 55.2375 129.64 55.8722 129.796 56.5166 129.797 56.7548 129.816 56.9942 129.816 57.2325 129.797 58.4025 129.639 59.4565 129.008 60.1485 128.051 60.8148 127.201 61.1106 126.119 60.9692 125.048 60.9011 124.682 60.7774 124.329 60.6025 124 61.995 122.65 63.6888 121.65 65.544 121.084 66.8137 120.916 68.1053 121.072 69.2982 121.538L55.7308 137.061C55.2717 137.074 54.8425 137.292 54.5609 137.655L54.3514 137.969C54.1002 138.297 53.9987 138.715 54.072 139.122 54.1556 139.541 54.4082 139.907 54.7704 140.134 54.9566 140.255 55.184 140.292 55.399 140.239 55.6137 140.188 55.8009 140.057 55.9229 139.872 56.1345 139.538 56.0836 139.101 55.8006 138.825L59.2929 141.007C59.1026 140.93 58.8895 140.93 58.6992 141.007 58.4801 141.06 58.2913 141.198 58.1754 141.392 58.0532 141.577 58.0152 141.805 58.0706 142.02 58.123 142.23 58.2543 142.411 58.4373 142.527 59.1419 142.988 60.0841 142.819 60.585 142.142L60.812 141.741C61.0612 141.412 61.1566 140.992 61.0739 140.588L61.0739 140.501C63.7281 136.398 66.5917 132.347 69.368 128.453L69.5776 128.156C70.5379 126.811 71.4983 125.415 72.4761 124.035 72.8815 124.691 73.1874 125.403 73.3841 126.148 73.4798 128.035 73.1142 129.917 72.319 131.631 71.9028 131.562 71.478 131.562 71.0618 131.631 69.9247 131.883 68.9403 132.59 68.3378 133.586ZM70.9396 122.254C71.0967 122.376 71.2189 122.533 71.3761 122.673L68.0934 127.353 67.8489 127.702C65.1948 131.439 62.4534 135.315 59.8866 139.261L57.3198 137.69 70.8348 122.254ZM71.9523 120.927 74.781 117.714C73.9778 118.919 73.1921 120.141 72.3539 121.329 72.229 121.197 72.0947 121.074 71.9523 120.962ZM79.286 113.523C79.0283 114.135 78.3448 114.446 77.7145 114.239 77.3933 114.164 77.1199 113.954 76.9637 113.663 76.8591 113.436 76.8591 113.174 76.9637 112.947 77.1561 112.465 77.6322 112.157 78.1511 112.179 78.2785 112.162 78.4077 112.162 78.5352 112.179 78.8536 112.261 79.1248 112.469 79.286 112.755 79.3869 113.001 79.3869 113.277 79.286 113.523Z" fill="#2C2C2C" fill-rule="nonzero" fill-opacity="1"/></g></g></g></g></svg>