<svg width="62" height="64" xmlns="http://www.w3.org/2000/svg" xmlns:xlink="http://www.w3.org/1999/xlink" overflow="hidden"><defs><clipPath id="clip0"><rect x="396" y="100" width="62" height="64"/></clipPath><clipPath id="clip1"><rect x="396" y="100" width="62" height="63"/></clipPath><clipPath id="clip2"><rect x="396" y="100" width="62" height="63"/></clipPath><clipPath id="clip3"><rect x="396" y="100" width="62" height="63"/></clipPath></defs><g clip-path="url(#clip0)" transform="translate(-396 -100)"><g clip-path="url(#clip1)"><g clip-path="url(#clip2)"><g clip-path="url(#clip3)"><path d="M21.6455 49.7695 16.1963 49.7695C14.8582 49.7695 13.7744 48.6857 13.7744 47.3477L13.7744 20.707C13.7744 19.3689 14.8582 18.2852 16.1963 18.2852L21.6455 18.2852C22.9836 18.2852 24.0674 19.3689 24.0674 20.707L24.0674 47.3477C24.0674 48.6857 22.9836 49.7695 21.6455 49.7695ZM16.1963 20.707 16.1963 47.3477 21.6455 47.3477 21.6455 20.707 16.1963 20.707ZM45.8945 49.7695 40.4453 49.7695C39.1072 49.7695 38.0234 48.6857 38.0234 47.3477L38.0234 20.707C38.0234 19.3689 39.1072 18.2852 40.4453 18.2852L45.8945 18.2852C47.2326 18.2852 48.3164 19.3689 48.3164 20.707L48.3164 47.3477C48.3164 48.6857 47.2326 49.7695 45.8945 49.7695ZM40.4453 20.707 40.4453 47.3477 45.8945 47.3477 45.8945 20.707 40.4453 20.707ZM33.7852 43.7148 28.3359 43.7148C26.9979 43.7148 25.9141 42.6311 25.9141 41.293L25.9141 14.6523C25.9141 13.3143 26.9979 12.2305 28.3359 12.2305L33.7852 12.2305C35.1232 12.2305 36.207 13.3143 36.207 14.6523L36.207 41.293C36.207 42.6311 35.1232 43.7148 33.7852 43.7148ZM28.3359 14.6523 28.3359 41.293 33.7852 41.293 33.7852 14.6523 28.3359 14.6523Z" fill="#000000" fill-rule="nonzero" fill-opacity="1" transform="matrix(1 0 0 1.01613 396 100)"/><path d="M34.9355 27.9727 27.0645 27.9727 27.0645 14.6523C27.0645 13.9863 27.6094 13.4414 28.2754 13.4414L33.7246 13.4414C34.3906 13.4414 34.9355 13.9863 34.9355 14.6523L34.9355 27.9727ZM43.0488 45.6523C42.4494 45.6523 41.959 45.1619 41.959 44.5625L41.959 41.7773C41.959 41.1779 42.4494 40.6875 43.0488 40.6875 43.6482 40.6875 44.1387 41.1779 44.1387 41.7773L44.1387 44.5625C44.1387 45.1619 43.6482 45.6523 43.0488 45.6523ZM31.0605 39.5371C30.4611 39.5371 29.9707 39.0467 29.9707 38.4473L29.9707 35.6621C29.9707 35.0627 30.4611 34.5723 31.0605 34.5723 31.66 34.5723 32.1504 35.0627 32.1504 35.6621L32.1504 38.4473C32.1504 39.0467 31.66 39.5371 31.0605 39.5371ZM18.8906 45.6523C18.2912 45.6523 17.8008 45.1619 17.8008 44.5625L17.8008 41.7773C17.8008 41.1779 18.2912 40.6875 18.8906 40.6875 19.49 40.6875 19.9805 41.1779 19.9805 41.7773L19.9805 44.5625C19.9805 45.1619 19.49 45.6523 18.8906 45.6523Z" fill="#000000" fill-rule="nonzero" fill-opacity="1" transform="matrix(1 0 0 1.01613 396 100)"/></g></g></g></g></svg>