<svg width="46" height="45" xmlns="http://www.w3.org/2000/svg" xmlns:xlink="http://www.w3.org/1999/xlink" overflow="hidden"><defs><clipPath id="clip0"><rect x="226" y="108" width="46" height="45"/></clipPath><clipPath id="clip1"><rect x="227" y="109" width="44" height="44"/></clipPath><clipPath id="clip2"><rect x="227" y="109" width="44" height="44"/></clipPath><clipPath id="clip3"><rect x="227" y="109" width="44" height="44"/></clipPath></defs><g clip-path="url(#clip0)" transform="translate(-226 -108)"><g clip-path="url(#clip1)"><g clip-path="url(#clip2)"><g clip-path="url(#clip3)"><path d="M266.875 137.555 256.648 131.327 256.648 134.902 239.148 134.902C237.443 134.898 236.065 133.547 236.065 131.88 236.065 130.213 237.443 128.862 239.148 128.862 240.853 128.862 242.228 130.213 242.232 131.88L242.232 133.499 247.168 133.499 247.168 131.88C247.168 127.542 243.579 124.029 239.148 124.029 234.714 124.029 231.128 127.542 231.125 131.877 231.125 136.215 234.714 139.728 239.145 139.731L256.645 139.731 256.645 143.788 266.875 137.555ZM242.331 148.875 247.268 148.875 247.268 141.257 242.331 141.257 242.331 148.875ZM249.052 148.875 253.988 148.875 253.988 141.257 249.052 141.257 249.052 148.875ZM249.052 133.472 253.988 133.472 253.988 123.138 257.69 123.138 251.324 113.125 244.961 123.138 249.052 123.138 249.052 133.472Z" fill="#000000" fill-rule="nonzero" fill-opacity="1"/></g></g></g></g></svg>